<mxfile host="app.diagrams.net" modified="2022-09-21T08:39:57.160Z" agent="5.0 (Macintosh; Intel Mac OS X 10_15_7) AppleWebKit/537.36 (KHTML, like Gecko) Chrome/105.0.0.0 Safari/537.36" etag="d7bzE-9RDzZ79ROkQk6Z" version="20.3.3" type="github">
  <diagram id="TUJENddmq7v5_Q5sMGxf" name="Page-1">
    <mxGraphModel dx="1298" dy="734" grid="1" gridSize="10" guides="1" tooltips="1" connect="1" arrows="1" fold="1" page="1" pageScale="1" pageWidth="850" pageHeight="1100" math="0" shadow="0">
      <root>
        <mxCell id="0" />
        <mxCell id="1" parent="0" />
        <mxCell id="sOryVXJt0j3tWZ-qUwfH-5" value="" style="rounded=0;whiteSpace=wrap;html=1;fillColor=#d5e8d4;strokeColor=#82b366;" vertex="1" parent="1">
          <mxGeometry x="130" y="600" width="180" height="360" as="geometry" />
        </mxCell>
        <mxCell id="45HFoswAD6oqI6lb5mcn-8" style="edgeStyle=orthogonalEdgeStyle;rounded=0;orthogonalLoop=1;jettySize=auto;html=1;exitX=0.5;exitY=1;exitDx=0;exitDy=0;entryX=0.5;entryY=0;entryDx=0;entryDy=0;dashed=1;" parent="1" source="45HFoswAD6oqI6lb5mcn-1" target="45HFoswAD6oqI6lb5mcn-3" edge="1">
          <mxGeometry relative="1" as="geometry" />
        </mxCell>
        <mxCell id="45HFoswAD6oqI6lb5mcn-9" style="edgeStyle=orthogonalEdgeStyle;rounded=0;orthogonalLoop=1;jettySize=auto;html=1;exitX=0.5;exitY=1;exitDx=0;exitDy=0;entryX=0.5;entryY=0;entryDx=0;entryDy=0;dashed=1;" parent="1" source="45HFoswAD6oqI6lb5mcn-1" target="45HFoswAD6oqI6lb5mcn-2" edge="1">
          <mxGeometry relative="1" as="geometry" />
        </mxCell>
        <mxCell id="45HFoswAD6oqI6lb5mcn-10" style="edgeStyle=orthogonalEdgeStyle;rounded=0;orthogonalLoop=1;jettySize=auto;html=1;exitX=0.5;exitY=1;exitDx=0;exitDy=0;entryX=0.5;entryY=0;entryDx=0;entryDy=0;dashed=1;" parent="1" source="45HFoswAD6oqI6lb5mcn-1" target="45HFoswAD6oqI6lb5mcn-4" edge="1">
          <mxGeometry relative="1" as="geometry" />
        </mxCell>
        <mxCell id="45HFoswAD6oqI6lb5mcn-1" value="Build Lifecycle" style="ellipse;whiteSpace=wrap;html=1;fillColor=#dae8fc;strokeColor=#6c8ebf;" parent="1" vertex="1">
          <mxGeometry x="320" y="200" width="120" height="80" as="geometry" />
        </mxCell>
        <mxCell id="45HFoswAD6oqI6lb5mcn-11" style="edgeStyle=orthogonalEdgeStyle;rounded=0;orthogonalLoop=1;jettySize=auto;html=1;exitX=0.5;exitY=1;exitDx=0;exitDy=0;entryX=0.5;entryY=0;entryDx=0;entryDy=0;dashed=1;" parent="1" source="45HFoswAD6oqI6lb5mcn-2" target="45HFoswAD6oqI6lb5mcn-6" edge="1">
          <mxGeometry relative="1" as="geometry" />
        </mxCell>
        <mxCell id="45HFoswAD6oqI6lb5mcn-12" style="edgeStyle=orthogonalEdgeStyle;rounded=0;orthogonalLoop=1;jettySize=auto;html=1;exitX=0.5;exitY=1;exitDx=0;exitDy=0;entryX=0.5;entryY=0;entryDx=0;entryDy=0;dashed=1;" parent="1" source="45HFoswAD6oqI6lb5mcn-2" target="45HFoswAD6oqI6lb5mcn-5" edge="1">
          <mxGeometry relative="1" as="geometry" />
        </mxCell>
        <mxCell id="45HFoswAD6oqI6lb5mcn-13" style="edgeStyle=orthogonalEdgeStyle;rounded=0;orthogonalLoop=1;jettySize=auto;html=1;exitX=0.5;exitY=1;exitDx=0;exitDy=0;dashed=1;" parent="1" source="45HFoswAD6oqI6lb5mcn-2" target="45HFoswAD6oqI6lb5mcn-7" edge="1">
          <mxGeometry relative="1" as="geometry" />
        </mxCell>
        <mxCell id="45HFoswAD6oqI6lb5mcn-2" value="Build Phase1" style="ellipse;whiteSpace=wrap;html=1;fillColor=#d5e8d4;strokeColor=#82b366;" parent="1" vertex="1">
          <mxGeometry x="160" y="320" width="120" height="80" as="geometry" />
        </mxCell>
        <mxCell id="45HFoswAD6oqI6lb5mcn-3" value="..." style="ellipse;whiteSpace=wrap;html=1;fillColor=#d5e8d4;strokeColor=#82b366;" parent="1" vertex="1">
          <mxGeometry x="320" y="320" width="120" height="80" as="geometry" />
        </mxCell>
        <mxCell id="45HFoswAD6oqI6lb5mcn-4" value="Build PhaseN" style="ellipse;whiteSpace=wrap;html=1;fillColor=#d5e8d4;strokeColor=#82b366;" parent="1" vertex="1">
          <mxGeometry x="480" y="320" width="120" height="80" as="geometry" />
        </mxCell>
        <mxCell id="45HFoswAD6oqI6lb5mcn-5" value="Plugin Goal1" style="ellipse;whiteSpace=wrap;html=1;fillColor=#ffe6cc;strokeColor=#d79b00;" parent="1" vertex="1">
          <mxGeometry y="440" width="120" height="80" as="geometry" />
        </mxCell>
        <mxCell id="45HFoswAD6oqI6lb5mcn-6" value="..." style="ellipse;whiteSpace=wrap;html=1;fillColor=#ffe6cc;strokeColor=#d79b00;" parent="1" vertex="1">
          <mxGeometry x="160" y="440" width="120" height="80" as="geometry" />
        </mxCell>
        <mxCell id="45HFoswAD6oqI6lb5mcn-7" value="Plugin GoalN" style="ellipse;whiteSpace=wrap;html=1;fillColor=#ffe6cc;strokeColor=#d79b00;" parent="1" vertex="1">
          <mxGeometry x="320" y="440" width="120" height="80" as="geometry" />
        </mxCell>
        <mxCell id="sOryVXJt0j3tWZ-qUwfH-1" value="Phase1" style="rounded=1;whiteSpace=wrap;html=1;fillColor=#dae8fc;strokeColor=#6c8ebf;" vertex="1" parent="1">
          <mxGeometry x="160" y="640" width="120" height="60" as="geometry" />
        </mxCell>
        <mxCell id="sOryVXJt0j3tWZ-qUwfH-2" value="Phase2" style="rounded=1;whiteSpace=wrap;html=1;fillColor=#dae8fc;strokeColor=#6c8ebf;" vertex="1" parent="1">
          <mxGeometry x="160" y="720" width="120" height="60" as="geometry" />
        </mxCell>
        <mxCell id="sOryVXJt0j3tWZ-qUwfH-3" value="……" style="rounded=1;whiteSpace=wrap;html=1;fillColor=#dae8fc;strokeColor=#6c8ebf;" vertex="1" parent="1">
          <mxGeometry x="160" y="800" width="120" height="60" as="geometry" />
        </mxCell>
        <mxCell id="sOryVXJt0j3tWZ-qUwfH-4" value="PhaseN" style="rounded=1;whiteSpace=wrap;html=1;fillColor=#dae8fc;strokeColor=#6c8ebf;" vertex="1" parent="1">
          <mxGeometry x="160" y="880" width="120" height="60" as="geometry" />
        </mxCell>
        <mxCell id="sOryVXJt0j3tWZ-qUwfH-6" value="LifeCycle" style="text;html=1;strokeColor=none;fillColor=none;align=center;verticalAlign=middle;whiteSpace=wrap;rounded=0;" vertex="1" parent="1">
          <mxGeometry x="130" y="600" width="60" height="30" as="geometry" />
        </mxCell>
        <mxCell id="sOryVXJt0j3tWZ-qUwfH-7" value="" style="rounded=0;whiteSpace=wrap;html=1;fillColor=#fff2cc;strokeColor=#d6b656;" vertex="1" parent="1">
          <mxGeometry x="480" y="614" width="160" height="166" as="geometry" />
        </mxCell>
        <mxCell id="sOryVXJt0j3tWZ-qUwfH-8" value="Goal1" style="ellipse;whiteSpace=wrap;html=1;rounded=1;fillColor=#ffe6cc;strokeColor=#d79b00;" vertex="1" parent="1">
          <mxGeometry x="515" y="640" width="90" height="60" as="geometry" />
        </mxCell>
        <mxCell id="sOryVXJt0j3tWZ-qUwfH-9" value="Goal2" style="ellipse;whiteSpace=wrap;html=1;rounded=1;fillColor=#ffe6cc;strokeColor=#d79b00;" vertex="1" parent="1">
          <mxGeometry x="515" y="710" width="90" height="60" as="geometry" />
        </mxCell>
        <mxCell id="sOryVXJt0j3tWZ-qUwfH-10" value="" style="rounded=0;whiteSpace=wrap;html=1;fillColor=#fff2cc;strokeColor=#d6b656;" vertex="1" parent="1">
          <mxGeometry x="483" y="843" width="160" height="100" as="geometry" />
        </mxCell>
        <mxCell id="sOryVXJt0j3tWZ-qUwfH-11" value="Goal" style="ellipse;whiteSpace=wrap;html=1;rounded=1;fillColor=#ffe6cc;strokeColor=#d79b00;" vertex="1" parent="1">
          <mxGeometry x="518" y="873" width="90" height="60" as="geometry" />
        </mxCell>
        <mxCell id="sOryVXJt0j3tWZ-qUwfH-13" value="Plugin" style="text;html=1;strokeColor=none;fillColor=none;align=left;verticalAlign=middle;whiteSpace=wrap;rounded=0;" vertex="1" parent="1">
          <mxGeometry x="486" y="840" width="40" height="30" as="geometry" />
        </mxCell>
        <mxCell id="sOryVXJt0j3tWZ-qUwfH-14" value="Plugin" style="text;html=1;strokeColor=none;fillColor=none;align=left;verticalAlign=middle;whiteSpace=wrap;rounded=0;" vertex="1" parent="1">
          <mxGeometry x="483" y="610" width="40" height="30" as="geometry" />
        </mxCell>
        <mxCell id="sOryVXJt0j3tWZ-qUwfH-15" style="rounded=0;orthogonalLoop=1;jettySize=auto;html=1;exitX=1;exitY=0.5;exitDx=0;exitDy=0;entryX=0;entryY=0.5;entryDx=0;entryDy=0;startArrow=classic;startFill=1;dashed=1;" edge="1" parent="1" source="sOryVXJt0j3tWZ-qUwfH-4" target="sOryVXJt0j3tWZ-qUwfH-11">
          <mxGeometry relative="1" as="geometry" />
        </mxCell>
        <mxCell id="sOryVXJt0j3tWZ-qUwfH-17" style="edgeStyle=none;rounded=0;orthogonalLoop=1;jettySize=auto;html=1;exitX=1;exitY=0.5;exitDx=0;exitDy=0;entryX=0;entryY=0.5;entryDx=0;entryDy=0;dashed=1;startArrow=classic;startFill=1;" edge="1" parent="1" source="sOryVXJt0j3tWZ-qUwfH-1" target="sOryVXJt0j3tWZ-qUwfH-8">
          <mxGeometry relative="1" as="geometry" />
        </mxCell>
        <mxCell id="sOryVXJt0j3tWZ-qUwfH-16" style="edgeStyle=none;rounded=0;orthogonalLoop=1;jettySize=auto;html=1;exitX=1;exitY=0.5;exitDx=0;exitDy=0;entryX=0;entryY=0.5;entryDx=0;entryDy=0;dashed=1;startArrow=classic;startFill=1;" edge="1" parent="1" source="sOryVXJt0j3tWZ-qUwfH-2" target="sOryVXJt0j3tWZ-qUwfH-9">
          <mxGeometry relative="1" as="geometry" />
        </mxCell>
        <mxCell id="sOryVXJt0j3tWZ-qUwfH-18" value="bind" style="text;html=1;strokeColor=none;fillColor=none;align=center;verticalAlign=middle;whiteSpace=wrap;rounded=0;" vertex="1" parent="1">
          <mxGeometry x="365" y="864" width="60" height="30" as="geometry" />
        </mxCell>
        <mxCell id="sOryVXJt0j3tWZ-qUwfH-19" value="bind" style="text;html=1;strokeColor=none;fillColor=none;align=center;verticalAlign=middle;whiteSpace=wrap;rounded=0;" vertex="1" parent="1">
          <mxGeometry x="365" y="715" width="60" height="30" as="geometry" />
        </mxCell>
        <mxCell id="sOryVXJt0j3tWZ-qUwfH-20" value="bind" style="text;html=1;strokeColor=none;fillColor=none;align=center;verticalAlign=middle;whiteSpace=wrap;rounded=0;" vertex="1" parent="1">
          <mxGeometry x="365" y="640" width="60" height="30" as="geometry" />
        </mxCell>
      </root>
    </mxGraphModel>
  </diagram>
</mxfile>
